<mxfile host="app.diagrams.net" modified="2022-05-27T18:36:49.992Z" agent="5.0 (Windows NT 10.0; Win64; x64) AppleWebKit/537.36 (KHTML, like Gecko) Chrome/101.0.4951.67 Safari/537.36" etag="nBo6QNqwSNx2IsRUzLDw" version="18.1.3" type="github">
  <diagram id="s9yiXaFYL5x4MdVWGGa1" name="Page-1">
    <mxGraphModel dx="1038" dy="547" grid="1" gridSize="10" guides="1" tooltips="1" connect="1" arrows="1" fold="1" page="1" pageScale="1" pageWidth="1654" pageHeight="2336" math="0" shadow="0">
      <root>
        <mxCell id="0" />
        <mxCell id="1" parent="0" />
        <mxCell id="kFVsWNj93qaaP_Dc7nVV-2" value="Bắt đầu" style="ellipse;whiteSpace=wrap;html=1;" vertex="1" parent="1">
          <mxGeometry x="340" y="60" width="120" height="80" as="geometry" />
        </mxCell>
        <mxCell id="kFVsWNj93qaaP_Dc7nVV-3" value="Xem danh sách" style="shape=parallelogram;perimeter=parallelogramPerimeter;whiteSpace=wrap;html=1;fixedSize=1;" vertex="1" parent="1">
          <mxGeometry x="340" y="200" width="120" height="60" as="geometry" />
        </mxCell>
        <mxCell id="kFVsWNj93qaaP_Dc7nVV-9" value="" style="endArrow=classic;html=1;rounded=0;entryX=0.5;entryY=1;entryDx=0;entryDy=0;" edge="1" parent="1" source="kFVsWNj93qaaP_Dc7nVV-14">
          <mxGeometry width="50" height="50" relative="1" as="geometry">
            <mxPoint x="710" y="110" as="sourcePoint" />
            <mxPoint x="670" y="230" as="targetPoint" />
          </mxGeometry>
        </mxCell>
        <mxCell id="kFVsWNj93qaaP_Dc7nVV-11" value="" style="endArrow=classic;html=1;rounded=0;exitX=0.5;exitY=1;exitDx=0;exitDy=0;" edge="1" parent="1" source="kFVsWNj93qaaP_Dc7nVV-2" target="kFVsWNj93qaaP_Dc7nVV-3">
          <mxGeometry width="50" height="50" relative="1" as="geometry">
            <mxPoint x="500" y="290" as="sourcePoint" />
            <mxPoint x="550" y="240" as="targetPoint" />
          </mxGeometry>
        </mxCell>
        <mxCell id="kFVsWNj93qaaP_Dc7nVV-12" value="" style="endArrow=classic;html=1;rounded=0;exitX=0.5;exitY=1;exitDx=0;exitDy=0;" edge="1" parent="1" source="kFVsWNj93qaaP_Dc7nVV-3">
          <mxGeometry width="50" height="50" relative="1" as="geometry">
            <mxPoint x="500" y="290" as="sourcePoint" />
            <mxPoint x="400" y="300" as="targetPoint" />
          </mxGeometry>
        </mxCell>
        <mxCell id="kFVsWNj93qaaP_Dc7nVV-13" value="Nhập từ khóa" style="shape=parallelogram;perimeter=parallelogramPerimeter;whiteSpace=wrap;html=1;fixedSize=1;" vertex="1" parent="1">
          <mxGeometry x="290" y="305" width="210" height="60" as="geometry" />
        </mxCell>
        <mxCell id="kFVsWNj93qaaP_Dc7nVV-14" value="Kiểm tra và tìm kiếm" style="rhombus;whiteSpace=wrap;html=1;" vertex="1" parent="1">
          <mxGeometry x="565" y="290" width="210" height="85" as="geometry" />
        </mxCell>
        <mxCell id="kFVsWNj93qaaP_Dc7nVV-15" value="" style="endArrow=classic;html=1;rounded=0;exitX=1;exitY=0.5;exitDx=0;exitDy=0;entryX=0;entryY=0.5;entryDx=0;entryDy=0;" edge="1" parent="1" source="kFVsWNj93qaaP_Dc7nVV-13" target="kFVsWNj93qaaP_Dc7nVV-14">
          <mxGeometry width="50" height="50" relative="1" as="geometry">
            <mxPoint x="500" y="350" as="sourcePoint" />
            <mxPoint x="550" y="300" as="targetPoint" />
          </mxGeometry>
        </mxCell>
        <mxCell id="kFVsWNj93qaaP_Dc7nVV-17" value="Thông báo sản phẩm không tồn tại" style="shape=parallelogram;perimeter=parallelogramPerimeter;whiteSpace=wrap;html=1;fixedSize=1;" vertex="1" parent="1">
          <mxGeometry x="550" y="420" width="240" height="60" as="geometry" />
        </mxCell>
        <mxCell id="kFVsWNj93qaaP_Dc7nVV-18" value="" style="endArrow=classic;html=1;rounded=0;exitX=0.5;exitY=1;exitDx=0;exitDy=0;entryX=0.5;entryY=0;entryDx=0;entryDy=0;" edge="1" parent="1" source="kFVsWNj93qaaP_Dc7nVV-14" target="kFVsWNj93qaaP_Dc7nVV-17">
          <mxGeometry width="50" height="50" relative="1" as="geometry">
            <mxPoint x="500" y="430" as="sourcePoint" />
            <mxPoint x="550" y="380" as="targetPoint" />
          </mxGeometry>
        </mxCell>
        <mxCell id="kFVsWNj93qaaP_Dc7nVV-19" value="Hiển thị sản phẩm" style="shape=parallelogram;perimeter=parallelogramPerimeter;whiteSpace=wrap;html=1;fixedSize=1;" vertex="1" parent="1">
          <mxGeometry x="550" y="170" width="240" height="60" as="geometry" />
        </mxCell>
        <mxCell id="kFVsWNj93qaaP_Dc7nVV-20" value="kết thúc" style="ellipse;whiteSpace=wrap;html=1;" vertex="1" parent="1">
          <mxGeometry x="910" y="375" width="120" height="80" as="geometry" />
        </mxCell>
        <mxCell id="kFVsWNj93qaaP_Dc7nVV-22" value="" style="endArrow=classic;html=1;rounded=0;entryX=0.047;entryY=0.765;entryDx=0;entryDy=0;exitX=1;exitY=0.5;exitDx=0;exitDy=0;entryPerimeter=0;" edge="1" parent="1" source="kFVsWNj93qaaP_Dc7nVV-17" target="kFVsWNj93qaaP_Dc7nVV-20">
          <mxGeometry width="50" height="50" relative="1" as="geometry">
            <mxPoint x="500" y="360" as="sourcePoint" />
            <mxPoint x="550" y="310" as="targetPoint" />
          </mxGeometry>
        </mxCell>
        <mxCell id="kFVsWNj93qaaP_Dc7nVV-23" value="có" style="text;html=1;strokeColor=none;fillColor=none;align=center;verticalAlign=middle;whiteSpace=wrap;rounded=0;" vertex="1" parent="1">
          <mxGeometry x="680" y="255" width="60" height="30" as="geometry" />
        </mxCell>
        <mxCell id="kFVsWNj93qaaP_Dc7nVV-24" value="không" style="text;html=1;strokeColor=none;fillColor=none;align=center;verticalAlign=middle;whiteSpace=wrap;rounded=0;" vertex="1" parent="1">
          <mxGeometry x="690" y="375" width="60" height="30" as="geometry" />
        </mxCell>
        <mxCell id="kFVsWNj93qaaP_Dc7nVV-26" value="Thích sản phẩm" style="shape=parallelogram;perimeter=parallelogramPerimeter;whiteSpace=wrap;html=1;fixedSize=1;" vertex="1" parent="1">
          <mxGeometry x="620" y="60" width="120" height="60" as="geometry" />
        </mxCell>
        <mxCell id="kFVsWNj93qaaP_Dc7nVV-27" value="Đến trang yêu thích" style="shape=parallelogram;perimeter=parallelogramPerimeter;whiteSpace=wrap;html=1;fixedSize=1;" vertex="1" parent="1">
          <mxGeometry x="800" y="60" width="147" height="60" as="geometry" />
        </mxCell>
        <mxCell id="kFVsWNj93qaaP_Dc7nVV-28" value="" style="endArrow=classic;html=1;rounded=0;" edge="1" parent="1" source="kFVsWNj93qaaP_Dc7nVV-19" target="kFVsWNj93qaaP_Dc7nVV-26">
          <mxGeometry width="50" height="50" relative="1" as="geometry">
            <mxPoint x="500" y="290" as="sourcePoint" />
            <mxPoint x="550" y="240" as="targetPoint" />
          </mxGeometry>
        </mxCell>
        <mxCell id="kFVsWNj93qaaP_Dc7nVV-29" value="" style="endArrow=classic;html=1;rounded=0;entryX=0;entryY=0.5;entryDx=0;entryDy=0;exitX=1;exitY=0.75;exitDx=0;exitDy=0;" edge="1" parent="1" source="kFVsWNj93qaaP_Dc7nVV-26" target="kFVsWNj93qaaP_Dc7nVV-27">
          <mxGeometry width="50" height="50" relative="1" as="geometry">
            <mxPoint x="500" y="290" as="sourcePoint" />
            <mxPoint x="550" y="240" as="targetPoint" />
          </mxGeometry>
        </mxCell>
        <mxCell id="kFVsWNj93qaaP_Dc7nVV-30" value="Xóa nhũng sản phẩm không yêu thích" style="shape=parallelogram;perimeter=parallelogramPerimeter;whiteSpace=wrap;html=1;fixedSize=1;" vertex="1" parent="1">
          <mxGeometry x="810" y="190" width="260" height="80" as="geometry" />
        </mxCell>
        <mxCell id="kFVsWNj93qaaP_Dc7nVV-31" value="" style="endArrow=classic;html=1;rounded=0;entryX=0.563;entryY=-0.017;entryDx=0;entryDy=0;entryPerimeter=0;exitX=0.329;exitY=0.983;exitDx=0;exitDy=0;exitPerimeter=0;" edge="1" parent="1" source="kFVsWNj93qaaP_Dc7nVV-27" target="kFVsWNj93qaaP_Dc7nVV-30">
          <mxGeometry width="50" height="50" relative="1" as="geometry">
            <mxPoint x="600" y="280" as="sourcePoint" />
            <mxPoint x="650" y="230" as="targetPoint" />
          </mxGeometry>
        </mxCell>
        <mxCell id="kFVsWNj93qaaP_Dc7nVV-32" value="" style="endArrow=classic;html=1;rounded=0;entryX=0.5;entryY=0;entryDx=0;entryDy=0;" edge="1" parent="1" source="kFVsWNj93qaaP_Dc7nVV-30" target="kFVsWNj93qaaP_Dc7nVV-20">
          <mxGeometry width="50" height="50" relative="1" as="geometry">
            <mxPoint x="600" y="280" as="sourcePoint" />
            <mxPoint x="650" y="230" as="targetPoint" />
          </mxGeometry>
        </mxCell>
      </root>
    </mxGraphModel>
  </diagram>
</mxfile>
